<?xml version="1.0" encoding="utf-8"?>
<!-- Generator: Adobe Illustrator 27.3.1, SVG Export Plug-In . SVG Version: 6.00 Build 0)  -->
<svg version="1.1" id="OBJECTS" xmlns="http://www.w3.org/2000/svg" xmlns:xlink="http://www.w3.org/1999/xlink" x="0px" y="0px"
	 viewBox="0 0 380 380" style="enable-background:new 0 0 380 380;" xml:space="preserve">
<style type="text/css">
	.st0{fill:#F3F5F6;}
	.st1{fill:#E66239;}
	.st2{fill:#657E92;}
	.st3{fill:#FFFFFF;}
	.st4{fill:#302C4D;}
</style>
<ellipse transform="matrix(0.7071 -0.7071 0.7071 0.7071 -78.7006 190)" class="st0" cx="190" cy="190" rx="179.68" ry="179.68"/>
<g>
	<g>
		<g>
			<ellipse class="st1" cx="165.63" cy="127.02" rx="109.98" ry="29.83"/>
		</g>
		<g>
			<g>
				<path class="st2" d="M273.24,144.07c0.78-1,2.38-0.41,2.38,0.85v47.87c0,16.46-49.24,29.82-109.99,29.82
					c-60.73,0-109.97-13.35-109.97-29.82v-47.87c0-1.26,1.6-1.85,2.38-0.85c7.48,9.6,31.98,17.5,64.54,21.27
					c13.22,1.52,27.77,2.37,43.06,2.37c15.29,0,29.84-0.85,43.06-2.37C241.26,161.58,265.76,153.68,273.24,144.07z"/>
			</g>
			<g>
				<circle class="st3" cx="245.18" cy="183.83" r="8.59"/>
			</g>
		</g>
		<g>
			<g>
				<path class="st4" d="M273.24,209.09c0.78-1,2.38-0.41,2.38,0.85v47.87c0,16.46-49.24,29.82-109.99,29.82
					c-60.73,0-109.97-13.35-109.97-29.82v-47.87c0-1.26,1.6-1.85,2.38-0.85c7.48,9.6,31.98,17.5,64.54,21.27
					c13.22,1.52,27.77,2.37,43.06,2.37c15.29,0,29.84-0.85,43.06-2.37C241.26,226.59,265.76,218.69,273.24,209.09z"/>
			</g>
			<g>
				<path class="st3" d="M253.78,248.85c0,4.74-3.85,8.59-8.59,8.59c-4.75,0-8.59-3.85-8.59-8.59s3.85-8.59,8.59-8.59
					C249.93,240.25,253.78,244.1,253.78,248.85z"/>
			</g>
		</g>
		<g>
			<g>
				<path class="st2" d="M273.24,274.11c0.78-1,2.38-0.41,2.38,0.85v47.87c0,16.46-49.24,29.82-109.99,29.82
					c-60.73,0-109.97-13.35-109.97-29.82v-47.87c0-1.26,1.6-1.85,2.38-0.85c7.48,9.6,31.98,17.5,64.54,21.27
					c13.22,1.52,27.77,2.37,43.06,2.37c15.29,0,29.84-0.85,43.06-2.37C241.26,291.61,265.76,283.71,273.24,274.11z"/>
			</g>
			<g>
				<path class="st3" d="M253.78,313.87c0,4.75-3.85,8.59-8.59,8.59c-4.75,0-8.59-3.85-8.59-8.59c0-4.74,3.85-8.59,8.59-8.59
					C249.93,305.27,253.78,309.12,253.78,313.87z"/>
			</g>
		</g>
	</g>
	<g>
		<g>
			<rect x="232.7" y="103.85" class="st4" width="16.69" height="16.69"/>
		</g>
		<g>
			<rect x="258.12" y="76.24" class="st2" width="26.15" height="26.15"/>
		</g>
		<g>
			<rect x="298.19" y="52.28" class="st1" width="26.15" height="26.15"/>
		</g>
		<g>
			<rect x="254.78" y="27.36" class="st4" width="38" height="38"/>
		</g>
		<g>
			<rect x="216.66" y="57.24" class="st1" width="32.08" height="32.08"/>
		</g>
	</g>
</g>
</svg>
